<svg id="Layer_1" data-name="Layer 1" xmlns="http://www.w3.org/2000/svg" xmlns:xlink="http://www.w3.org/1999/xlink" viewBox="0 0 176.01 36.76"><defs><style>.cls-1{fill:url(#linear-gradient);}.cls-2,.cls-3{fill:none;}.cls-2,.cls-3,.cls-4{stroke-miterlimit:10;}.cls-2{stroke:url(#linear-gradient-2);}.cls-3{stroke-width:2px;stroke:url(#linear-gradient-3);}.cls-4{fill:#349b5d;stroke:#349b5d;}</style><linearGradient id="linear-gradient" x1="6.21" y1="16.85" x2="30.54" y2="16.85" gradientUnits="userSpaceOnUse"><stop offset="0" stop-color="#3ca7cd"/><stop offset="0.27" stop-color="#39aae0"/><stop offset="1" stop-color="#2c993f"/></linearGradient><linearGradient id="linear-gradient-2" x1="5.83" y1="28.9" x2="30.91" y2="28.9" xlink:href="#linear-gradient"/><linearGradient id="linear-gradient-3" x1="0" y1="18.38" x2="36.75" y2="18.38" xlink:href="#linear-gradient"/></defs><title>Artboard 1</title><path class="cls-1" d="M16.87,4.75A12,12,0,0,0,9.74,8.28,11.86,11.86,0,0,0,6.31,15a16.46,16.46,0,0,0,.1,4.33,12.36,12.36,0,0,0,6.41,8.34A11.22,11.22,0,0,0,18.36,29a11.14,11.14,0,0,0,3.8-.57,12.33,12.33,0,0,0,8.23-9.56,14.39,14.39,0,0,0,0-4,12.22,12.22,0,0,0-9.56-9.93A15.63,15.63,0,0,0,16.87,4.75Z"/><path class="cls-2" d="M6.21,25.82c6.62,8,17.37,7.93,24.33,0"/><path class="cls-3" d="M16.23,1.08A17.05,17.05,0,0,0,6,6.13a17,17,0,0,0-4.9,9.64A23.25,23.25,0,0,0,1.29,22a17.63,17.63,0,0,0,9.15,11.91,16,16,0,0,0,7.91,1.89,15.82,15.82,0,0,0,5.43-.82A17.59,17.59,0,0,0,35.54,21.28a19.85,19.85,0,0,0,0-5.76A17.46,17.46,0,0,0,21.88,1.33,22.56,22.56,0,0,0,16.23,1.08Z"/><path class="cls-4" d="M44.59,15.05a5,5,0,0,1,4-1.82q4.56,0,4.63,5.21v6.48a2.84,2.84,0,0,1-2.84,2.84H50v-9.2a2.78,2.78,0,0,0-.64-2.09,2.6,2.6,0,0,0-1.88-.62,3.07,3.07,0,0,0-2.87,1.72v7.35a2.84,2.84,0,0,1-2.83,2.84h-.37V10.34a2.83,2.83,0,0,1,2.83-2.83h.37Z"/><path class="cls-4" d="M65.6,26.36a4.94,4.94,0,0,1-4,1.66,4.43,4.43,0,0,1-3.52-1.36,5.79,5.79,0,0,1-1.19-3.93v-6.4a2.84,2.84,0,0,1,2.84-2.84h.36V22.7c0,1.81.76,2.71,2.26,2.71a3.18,3.18,0,0,0,3.15-1.67V16.33a2.84,2.84,0,0,1,2.83-2.84h.37V24.92a2.84,2.84,0,0,1-2.83,2.84h-.19Z"/><path class="cls-4" d="M75.52,13.49,75.61,15a5.12,5.12,0,0,1,4.11-1.75,3.94,3.94,0,0,1,3.92,2.19A5.07,5.07,0,0,1,88,13.23a4.44,4.44,0,0,1,3.51,1.3,5.77,5.77,0,0,1,1.18,3.85v6.54a2.84,2.84,0,0,1-2.83,2.84h-.37V18.48a2.8,2.8,0,0,0-.6-2,2.55,2.55,0,0,0-2-.64,2.68,2.68,0,0,0-1.79.59,3.12,3.12,0,0,0-1,1.54v6.94a2.84,2.84,0,0,1-2.83,2.84H81V18.37a2.28,2.28,0,0,0-2.57-2.52,2.84,2.84,0,0,0-2.73,1.57v7.5a2.84,2.84,0,0,1-2.83,2.84H72.5V16.33a2.84,2.84,0,0,1,2.83-2.84Z"/><path class="cls-4" d="M105.06,27.76a5.28,5.28,0,0,1-.37-1.33A5,5,0,0,1,101,28a5.08,5.08,0,0,1-3.51-1.22,4,4,0,0,1-1.36-3,4.06,4.06,0,0,1,1.7-3.5A8.22,8.22,0,0,1,102.62,19h2v-.93a2.54,2.54,0,0,0-.62-1.78,2.48,2.48,0,0,0-1.89-.66,2.79,2.79,0,0,0-1.79.55,1.67,1.67,0,0,0-.7,1.39h-3.2a3.54,3.54,0,0,1,.78-2.2,5.15,5.15,0,0,1,2.11-1.6,7.38,7.38,0,0,1,3-.58,6,6,0,0,1,4,1.26A4.51,4.51,0,0,1,107.79,18v6.43a7.28,7.28,0,0,0,.54,3.07v.23Zm-3.52-2.31a3.64,3.64,0,0,0,1.79-.46,3.07,3.07,0,0,0,1.26-1.24V21.06h-1.73a4.76,4.76,0,0,0-2.68.62,2,2,0,0,0-.89,1.75,1.85,1.85,0,0,0,.61,1.47A2.36,2.36,0,0,0,101.54,25.45Z"/><path class="cls-4" d="M114.66,13.49l.09,1.65a5.15,5.15,0,0,1,4.15-1.91c3,0,4.49,1.7,4.54,5.1v6.59a2.84,2.84,0,0,1-2.84,2.84h-.36V18.52a2.92,2.92,0,0,0-.59-2,2.45,2.45,0,0,0-1.92-.66,3.1,3.1,0,0,0-2.89,1.76v7.31A2.84,2.84,0,0,1,112,27.76h-.37V16.33a2.84,2.84,0,0,1,2.84-2.84Z"/><path class="cls-4" d="M127.25,9.79a1.73,1.73,0,0,1,.47-1.23,2.08,2.08,0,0,1,2.68,0,1.69,1.69,0,0,1,.47,1.23,1.62,1.62,0,0,1-.47,1.2,2.08,2.08,0,0,1-2.68,0A1.66,1.66,0,0,1,127.25,9.79Zm.57,18h-.37V16.33a2.84,2.84,0,0,1,2.83-2.84h.37V24.92A2.84,2.84,0,0,1,127.82,27.76Z"/><path class="cls-4" d="M138.1,25.2h7.59v.16a2.4,2.4,0,0,1-2.4,2.4h-9.17v-2.1l7.24-9.58h-7.11a2.59,2.59,0,0,1,2.58-2.59h8.59v2Z"/><path class="cls-4" d="M154.87,28a6.63,6.63,0,0,1-4.94-1.92A7,7,0,0,1,148,21V20.6a8.57,8.57,0,0,1,.82-3.82,6.2,6.2,0,0,1,2.32-2.61,6.06,6.06,0,0,1,3.32-.94,5.6,5.6,0,0,1,4.5,1.86,7.85,7.85,0,0,1,1.59,5.26v1.29h-9.32a4.32,4.32,0,0,0,1.18,2.8,3.56,3.56,0,0,0,2.6,1,4.34,4.34,0,0,0,3.59-1.78l1.73,1.65a5.89,5.89,0,0,1-2.29,2A7.2,7.2,0,0,1,154.87,28Zm-.38-12.22a2.71,2.71,0,0,0-2.13.92,4.84,4.84,0,0,0-1,2.57h6.1v-.23a3.9,3.9,0,0,0-.85-2.44A2.71,2.71,0,0,0,154.49,15.8Z"/><path class="cls-4" d="M163,20.52a8.46,8.46,0,0,1,1.53-5.29,4.91,4.91,0,0,1,4.1-2,4.67,4.67,0,0,1,3.67,1.58V10.34a2.83,2.83,0,0,1,2.83-2.83h.37V24.92a2.84,2.84,0,0,1-2.83,2.84h-.07l-.16-1.48A4.7,4.7,0,0,1,168.62,28a4.88,4.88,0,0,1-4.06-2A8.79,8.79,0,0,1,163,20.52Zm3.21.28a6,6,0,0,0,.83,3.39,2.74,2.74,0,0,0,2.38,1.22,3,3,0,0,0,2.88-1.75V17.57a3,3,0,0,0-2.85-1.72,2.72,2.72,0,0,0-2.4,1.24A6.61,6.61,0,0,0,166.22,20.8Z"/></svg>